<svg version="1.0" xmlns="http://www.w3.org/2000/svg"
 width="1336.000000pt" height="1350.000000pt" viewBox="0 0 1336.000000 1350.000000"
 preserveAspectRatio="xMidYMid meet">

<g transform="translate(0.000000,1350.000000) scale(0.100000,-0.100000)"
fill="#5f4e2c" stroke="none">
<path  d="M0 6750 l0 -6750 6680 0 6680 0 0 6750 0 6750 -6680 0 -6680 0 0
-6750z m11539 5325 c45 -22 53 -63 25 -117 -15 -29 -15 -34 1 -67 9 -20 21
-76 27 -126 15 -133 13 -128 63 -148 50 -21 93 -66 102 -107 3 -15 23 -49 44
-75 21 -26 39 -50 39 -54 0 -4 20 -17 45 -29 25 -12 48 -29 52 -37 4 -12 15
-14 48 -9 75 11 109 -27 121 -133 4 -32 17 -82 30 -111 13 -29 24 -66 24 -82
0 -16 4 -31 9 -35 5 -3 42 -2 82 1 67 7 75 10 122 52 28 24 67 51 86 59 20 8
55 24 78 36 38 19 47 20 95 10 86 -18 162 -51 206 -88 33 -28 45 -50 66 -113
32 -94 47 -118 90 -136 75 -31 146 -121 146 -184 0 -64 -60 -155 -124 -190
-20 -10 -66 -19 -126 -22 -71 -4 -108 -12 -149 -31 l-54 -24 2 -98 2 -97 -48
-50 c-63 -66 -100 -74 -142 -32 -28 27 -30 36 -30 91 1 42 -4 69 -16 87 -12
19 -19 62 -25 157 -5 73 -12 142 -16 155 -4 13 -24 32 -48 44 -22 11 -57 36
-77 55 -45 43 -92 50 -169 28 -30 -9 -78 -20 -106 -25 -36 -5 -67 -20 -105
-49 -29 -22 -80 -54 -114 -70 -33 -17 -54 -31 -47 -31 7 0 36 -16 65 -35 30
-20 64 -35 81 -35 41 0 108 -34 162 -83 38 -35 46 -48 47 -79 1 -39 -32 -88
-59 -88 -7 0 -18 -9 -24 -20 -13 -24 -60 -50 -91 -50 -24 0 -89 63 -89 86 0
20 -14 17 -36 -7 -58 -64 -190 -129 -262 -129 -42 0 -122 -41 -137 -70 -13
-25 -13 -30 5 -53 24 -30 26 -74 6 -103 -13 -18 -12 -26 7 -65 48 -95 95 -154
143 -174 98 -41 164 -200 164 -394 0 -151 -44 -384 -84 -446 -7 -11 -18 -37
-25 -57 -14 -43 -87 -113 -139 -135 -20 -8 -49 -26 -63 -39 -30 -28 -121 -64
-163 -64 -16 0 -46 -5 -67 -12 -31 -9 -45 -8 -67 2 -15 7 -56 12 -92 11 -78
-2 -139 17 -187 59 -42 37 -94 62 -197 95 -95 30 -100 30 -140 5 -18 -10 -74
-26 -125 -34 -59 -10 -117 -27 -158 -47 -46 -22 -73 -30 -93 -25 -56 11 -123
-20 -216 -100 -49 -41 -100 -90 -114 -109 -14 -19 -45 -49 -70 -68 -36 -27
-48 -44 -58 -82 -11 -40 -11 -50 0 -56 7 -4 44 -30 83 -56 93 -65 126 -117
128 -204 2 -57 -2 -70 -32 -119 -18 -30 -42 -65 -54 -77 -11 -13 -24 -46 -28
-75 -9 -57 -42 -98 -79 -98 -11 0 -30 -5 -42 -11 -39 -17 -73 4 -118 75 -22
35 -52 72 -66 81 -14 9 -34 36 -44 60 -10 24 -33 56 -51 72 -17 15 -38 43 -46
62 l-14 33 -26 -23 c-14 -13 -39 -44 -54 -68 l-28 -44 44 -34 c49 -37 155
-179 173 -231 17 -49 -5 -92 -91 -182 -40 -41 -84 -89 -98 -105 -42 -47 -142
-131 -185 -154 -50 -27 -97 -26 -159 3 -76 36 -130 80 -167 136 -18 27 -35 50
-38 49 -3 0 -29 -30 -59 -66 -54 -65 -54 -65 -38 -93 10 -16 17 -41 17 -58 0
-34 -43 -97 -90 -133 -17 -13 -53 -42 -78 -65 -63 -55 -76 -61 -154 -69 -59
-6 -71 -5 -103 15 l-37 23 -41 -23 c-73 -40 -115 -87 -127 -143 -12 -58 -3
-277 12 -277 6 0 22 6 36 14 69 37 123 48 190 42 87 -9 128 -22 149 -49 34
-42 79 -67 122 -67 95 0 155 -54 166 -149 8 -72 -10 -118 -58 -145 -17 -11
-41 -27 -53 -38 -27 -24 -79 -30 -120 -13 -37 15 -49 33 -58 90 -3 22 -17 63
-31 90 -13 28 -25 58 -25 67 0 27 -33 38 -123 45 l-82 6 -73 -87 c-61 -73 -72
-91 -72 -123 0 -49 11 -64 51 -77 40 -13 60 -56 41 -86 -10 -16 -6 -29 23 -79
18 -34 50 -97 70 -140 41 -92 91 -170 143 -223 32 -34 41 -38 88 -38 109 0
236 -71 294 -164 20 -31 22 -31 148 -39 55 -4 67 -8 98 -38 43 -41 145 -247
168 -340 26 -101 34 -114 84 -140 41 -21 54 -37 110 -134 35 -60 68 -130 75
-155 6 -25 22 -57 35 -72 23 -25 27 -26 46 -13 11 8 31 15 44 15 31 0 120 -48
133 -72 7 -13 22 -18 57 -18 36 0 57 -7 82 -25 19 -14 40 -25 48 -25 17 0 141
72 180 105 17 14 35 25 41 25 6 0 18 14 27 32 9 17 35 52 59 77 76 82 84 106
78 237 -5 101 -4 116 12 134 10 11 24 20 32 20 8 0 31 14 52 30 25 20 57 34
97 41 32 6 69 13 82 15 12 3 22 11 22 19 0 20 311 224 368 241 26 8 70 14 97
14 28 0 67 2 87 6 31 5 41 2 62 -20 14 -14 26 -35 26 -46 0 -22 -41 -70 -60
-70 -6 0 -10 -26 -10 -63 0 -49 4 -68 18 -81 11 -9 25 -35 31 -58 8 -25 30
-58 56 -84 42 -41 85 -110 85 -137 0 -19 79 -170 96 -183 37 -29 121 -178 137
-245 4 -15 22 -42 40 -60 20 -20 44 -61 57 -97 12 -34 28 -62 36 -62 28 0 103
-40 114 -61 10 -17 10 -31 0 -62 -6 -21 -15 -76 -20 -121 -11 -105 -38 -170
-82 -192 -18 -9 -54 -36 -79 -59 -46 -43 -192 -120 -249 -131 -16 -4 -30 -9
-30 -13 -1 -3 -2 -33 -5 -66 -2 -33 2 -92 10 -132 19 -101 11 -124 -84 -216
-54 -53 -81 -87 -85 -109 -9 -45 -75 -103 -141 -124 -52 -17 -57 -17 -90 -1
-44 21 -45 21 -45 0 0 -10 -8 -32 -19 -49 -32 -52 -34 -72 -12 -100 23 -29 28
-89 12 -140 -5 -16 -14 -54 -21 -84 -7 -30 -25 -69 -39 -87 -14 -18 -37 -47
-50 -64 -14 -18 -44 -40 -68 -51 l-43 -19 -2 -82 c-1 -45 0 -108 1 -139 2 -50
0 -60 -23 -83 -68 -68 -144 9 -192 195 -9 35 -25 76 -36 90 -25 34 -27 141 -6
215 8 28 13 66 11 85 -2 19 2 59 10 88 14 52 14 53 -12 71 -14 10 -44 26 -66
35 -22 9 -49 25 -60 35 -11 10 -38 28 -60 39 -22 11 -66 43 -98 71 -32 28 -69
53 -83 56 -13 3 -36 8 -51 11 -35 7 -53 22 -64 51 -5 13 -32 35 -68 52 -64 33
-121 93 -121 128 0 23 -64 83 -89 83 -7 0 -35 -22 -62 -50 -26 -27 -60 -52
-76 -56 -15 -4 -37 -13 -48 -20 -43 -30 -101 -9 -130 46 -25 48 -20 74 27 141
9 13 19 39 23 56 l6 32 -31 -10 c-46 -17 -119 -6 -165 23 -23 14 -82 35 -135
47 -52 12 -102 26 -110 31 -10 6 -28 -4 -67 -41 -59 -55 -92 -63 -130 -27 -28
26 -29 57 -4 106 l19 38 -46 17 c-26 9 -69 34 -96 57 -26 22 -52 40 -58 40
-15 0 -64 -28 -78 -45 -21 -25 -99 -62 -150 -70 -55 -9 -66 -14 -160 -77 -74
-48 -84 -61 -142 -161 -39 -69 -163 -213 -206 -238 -20 -12 -46 -31 -58 -41
-20 -18 -20 -21 -6 -66 15 -45 15 -51 -16 -172 -29 -112 -32 -134 -26 -210 4
-52 2 -113 -5 -156 -10 -58 -9 -90 4 -186 20 -145 20 -146 95 -303 34 -71 70
-150 80 -175 21 -52 87 -163 140 -235 20 -27 44 -63 54 -80 39 -71 82 -120
106 -122 204 -15 232 -44 211 -216 -15 -123 -27 -162 -58 -187 -31 -24 -65
-26 -98 -4 -29 19 -146 157 -168 200 -9 16 -32 44 -51 62 -19 18 -37 45 -41
60 -3 15 -15 36 -25 47 -11 11 -29 43 -41 70 -12 28 -44 80 -71 117 -30 41
-67 111 -95 180 -42 105 -123 271 -178 362 -37 62 -44 138 -36 391 7 228 7
230 -15 255 -12 14 -29 40 -38 58 -14 28 -22 32 -54 32 -24 0 -50 9 -69 23
-30 22 -36 23 -125 15 -51 -5 -109 -15 -128 -23 -19 -8 -44 -15 -55 -17 -15
-3 -21 -14 -27 -52 -8 -57 -58 -117 -123 -147 -51 -24 -155 -25 -224 -2 l-51
16 -40 -31 c-53 -43 -80 -52 -182 -62 -63 -6 -98 -15 -130 -33 -24 -14 -59
-30 -78 -36 -25 -8 -44 -25 -65 -58 -20 -32 -49 -58 -87 -80 -72 -42 -230
-191 -253 -239 -9 -20 -23 -76 -30 -126 -15 -99 -32 -134 -70 -144 -63 -16
-115 38 -135 142 -15 75 -2 128 40 169 16 16 30 38 30 49 1 32 24 66 67 100
95 73 143 115 174 150 l32 37 -34 34 c-30 30 -42 34 -101 39 -37 3 -81 12 -98
21 -33 17 -73 71 -90 122 -7 17 -22 39 -35 47 -13 9 -36 37 -51 63 -15 27 -37
58 -48 71 -11 12 -32 44 -46 69 -17 33 -34 49 -54 54 -15 4 -36 14 -45 22 -21
19 -61 26 -197 36 -60 4 -117 11 -125 16 -58 34 -157 102 -169 117 -14 17 -21
18 -60 8 -25 -5 -122 -13 -217 -17 -162 -6 -173 -5 -212 15 -22 12 -71 26
-108 32 -37 6 -69 13 -72 15 -2 3 -17 -7 -33 -20 -16 -14 -40 -25 -52 -25 -40
0 -113 57 -144 113 -16 29 -41 62 -54 74 -26 25 -98 53 -133 53 -33 0 -105 33
-137 63 l-27 25 -20 -31 c-28 -45 -109 -111 -174 -143 -58 -28 -67 -42 -67
-102 0 -83 -53 -136 -113 -114 -17 7 -70 8 -130 5 -123 -7 -156 4 -210 68
-123 148 -117 138 -117 187 0 68 14 109 68 199 48 79 48 81 30 103 -24 30 -23
71 3 104 20 25 20 29 6 43 -13 14 -23 14 -94 -1 -49 -10 -130 -16 -209 -16
l-130 0 -67 -44 c-123 -81 -207 -119 -261 -119 -41 1 -57 -5 -88 -30 -41 -32
-61 -35 -148 -18 -117 22 -137 117 -34 162 l44 20 -24 37 c-40 62 -52 107 -38
145 7 19 9 53 5 85 -5 46 -3 56 17 77 13 14 31 25 40 25 25 0 28 7 17 48 -8
31 -7 45 6 71 l16 32 -39 43 c-24 26 -40 53 -40 68 0 28 38 68 67 71 17 1 22
16 38 117 17 105 22 118 52 149 29 29 38 33 67 28 30 -5 36 -2 46 23 14 33 57
75 87 84 22 7 22 7 4 37 -31 50 -159 104 -284 119 -82 10 -105 17 -124 36 -28
29 -29 53 -2 88 15 19 30 26 55 26 19 0 47 6 62 14 15 7 48 16 74 19 27 4 56
15 67 26 19 19 79 41 112 41 8 0 42 -20 73 -45 66 -51 60 -49 89 -33 12 6 56
17 98 24 83 15 120 9 168 -25 l29 -21 27 55 c14 30 33 62 41 70 20 19 68 19
84 0 19 -23 29 -19 95 44 34 33 75 63 91 67 16 4 47 19 69 34 22 15 49 30 60
34 34 10 116 98 137 146 11 25 28 55 39 66 14 15 17 24 9 29 -21 13 -30 54
-18 79 13 29 58 50 87 42 12 -3 29 -8 39 -11 14 -4 23 4 35 32 23 52 36 118
37 178 0 28 10 75 21 105 24 64 24 68 9 135 -22 100 8 185 65 185 14 0 25 6
25 13 0 6 16 43 35 81 19 39 35 76 35 83 0 17 -192 6 -230 -14 -14 -7 -33 -13
-42 -13 -11 0 -18 -8 -18 -19 0 -11 -10 -32 -23 -48 -47 -58 -117 -182 -117
-207 0 -35 -25 -83 -49 -96 -27 -14 -81 -12 -110 4 -21 12 -28 11 -59 -10 -43
-29 -81 -30 -115 -4 l-26 20 -26 -26 c-23 -23 -31 -25 -68 -19 -23 3 -64 6
-90 6 -27 -1 -61 6 -77 14 -29 15 -60 60 -60 88 0 7 -14 23 -30 35 -24 18 -30
30 -30 58 0 20 -9 49 -20 64 -33 46 -35 82 -8 116 14 16 32 49 42 74 17 44 42
80 56 80 4 0 43 35 86 78 101 99 153 126 231 118 32 -3 105 -10 163 -15 58 -5
120 -12 138 -16 46 -11 80 -55 88 -116 l7 -50 51 7 c28 3 61 13 73 21 22 15
93 20 111 9 5 -3 61 -1 124 4 64 5 126 6 138 3 35 -9 51 -53 44 -125 -8 -93
-11 -104 -44 -140 -17 -18 -32 -42 -35 -53 -2 -11 -13 -61 -24 -111 -16 -73
-18 -99 -9 -126 8 -27 7 -52 -6 -109 -20 -85 -38 -119 -66 -119 -11 0 -20 -2
-20 -4 0 -2 -6 -38 -14 -79 -19 -96 -86 -239 -127 -269 -29 -22 -30 -25 -24
-80 4 -34 2 -71 -5 -92 -19 -58 -76 -81 -128 -53 -20 12 -27 9 -73 -34 -70
-67 -137 -109 -172 -109 -26 0 -83 -30 -99 -54 -3 -5 -4 -24 -1 -42 8 -49 -31
-84 -93 -84 -42 0 -52 -5 -95 -45 -26 -25 -57 -45 -67 -45 -10 0 -27 -9 -37
-20 -10 -11 -26 -22 -37 -26 -10 -3 -30 -17 -43 -30 -13 -13 -38 -27 -55 -30
-21 -5 -30 -12 -30 -26 0 -39 -46 -106 -134 -194 -50 -50 -112 -114 -138 -143
l-48 -52 0 -103 0 -103 49 -23 c110 -51 161 -150 110 -214 -29 -37 -77 -36
-122 4 l-34 29 -46 -42 -46 -43 10 -60 c5 -32 12 -80 15 -106 4 -27 7 -48 8
-48 9 1 140 77 197 114 l74 49 125 -6 c85 -3 150 -1 205 9 153 27 223 17 263
-37 12 -17 14 -17 47 4 20 12 70 48 112 79 99 75 121 78 219 39 42 -17 89 -31
105 -31 63 0 130 -22 164 -55 32 -30 35 -37 35 -90 0 -52 -3 -60 -34 -91 -36
-36 -78 -44 -117 -24 -16 9 -19 7 -19 -9 0 -25 52 -57 108 -66 32 -5 54 -19
96 -59 47 -46 62 -55 115 -65 34 -7 66 -9 71 -6 18 11 123 -15 160 -38 19 -13
53 -27 75 -30 46 -7 85 -45 85 -82 0 -29 19 -40 83 -48 26 -4 70 -16 98 -28
46 -20 61 -22 193 -16 79 3 170 11 203 18 71 15 105 5 163 -46 71 -63 128 -88
210 -92 92 -4 211 -29 266 -54 22 -10 45 -19 51 -19 16 0 73 -69 89 -107 8
-18 25 -40 39 -49 14 -9 32 -37 42 -66 12 -34 27 -54 46 -64 18 -10 37 -36 56
-79 l30 -65 48 0 c27 0 73 -6 103 -14 125 -31 187 -39 225 -26 21 7 53 10 72
7 22 -4 46 -1 63 8 16 8 67 19 113 24 109 13 193 51 177 81 -5 10 -10 26 -10
35 0 22 112 138 164 171 23 15 54 44 69 66 31 44 87 73 125 63 30 -7 86 -66
113 -117 19 -37 19 -38 52 -23 17 7 48 17 67 20 36 6 70 45 85 97 4 13 19 39
34 58 16 19 33 52 40 72 11 32 10 41 -3 60 -40 56 -4 122 64 117 36 -3 42 0
67 38 50 73 87 97 161 101 65 5 66 5 119 63 33 36 68 62 91 70 20 6 61 29 91
50 30 22 61 39 70 39 8 0 33 6 56 14 22 8 67 18 100 24 162 27 259 58 328 106
73 49 81 52 124 35 21 -8 29 -7 32 2 9 29 51 59 82 59 17 0 43 8 57 19 52 36
93 43 160 27 70 -16 109 -37 137 -74 17 -23 20 -44 21 -147 2 -118 2 -120 25
-123 13 -2 58 -19 99 -37 42 -19 104 -41 137 -49 61 -14 62 -14 84 10 31 33
73 31 107 -5 15 -16 45 -38 67 -49 41 -21 105 -77 140 -122 11 -14 40 -40 65
-57 61 -42 99 -84 109 -119 5 -22 21 -37 63 -59 31 -16 64 -38 75 -47 10 -10
36 -24 57 -33 89 -37 236 -131 302 -194 38 -36 106 -89 151 -117 75 -48 81
-50 100 -35 12 9 35 24 52 33 36 20 73 76 65 100 -2 9 2 33 10 52 l15 36 -37
-6 c-55 -8 -161 12 -187 36 -15 14 -35 20 -69 20 -36 0 -52 5 -71 25 -26 25
-33 63 -15 81 8 8 8 37 1 95 -7 58 -7 96 0 124 6 22 13 50 16 62 4 16 -5 32
-33 61 -22 21 -46 48 -54 61 -19 28 -140 71 -200 70 -25 0 -78 -6 -119 -13
-40 -7 -84 -11 -96 -9 -18 4 -75 53 -135 117 -8 9 -28 27 -43 39 -21 16 -30
34 -35 71 -5 34 -13 52 -27 60 -11 5 -32 18 -47 28 l-28 19 0 -55 c0 -48 -4
-60 -32 -92 -42 -48 -71 -58 -108 -39 -36 19 -43 42 -35 116 11 94 -1 152 -44
206 -93 117 -108 174 -75 278 13 40 15 70 10 127 -7 69 -11 79 -44 115 -20 22
-46 63 -57 92 -30 79 -84 110 -129 76 -28 -21 -79 -19 -100 4 -10 11 -20 38
-23 60 -5 35 -2 44 26 71 17 17 31 35 31 39 0 12 -103 59 -155 71 -78 17 -82
19 -151 71 -62 48 -66 50 -97 38 -28 -10 -39 -9 -72 6 -21 10 -46 33 -57 51
-26 44 -83 78 -108 64 -63 -34 -137 30 -106 91 10 20 8 30 -11 64 -13 22 -23
46 -23 54 0 7 -11 26 -25 42 -17 21 -26 47 -31 89 -10 86 -31 116 -88 122 -25
3 -58 14 -72 24 -78 56 -98 64 -146 58 -41 -6 -50 -3 -72 19 -14 15 -26 35
-26 47 0 11 -9 29 -21 41 -16 16 -20 28 -15 52 4 18 9 111 12 207 l6 175 30
38 c20 25 28 45 25 59 -7 26 8 66 36 96 25 27 25 41 -4 186 -10 54 -19 110
-19 124 0 26 72 143 106 173 11 9 32 21 49 26 39 13 70 64 56 92 -16 30 -13
63 9 91 11 14 20 39 20 55 1 87 50 165 105 165 18 0 38 -7 45 -15 19 -23 31
-19 82 30 57 53 81 56 167 21 l59 -24 53 55 54 54 -75 72 c-42 40 -108 99
-148 132 -40 33 -75 69 -78 80 -4 11 -26 38 -50 61 -31 29 -44 49 -44 68 0 40
25 81 65 106 19 12 48 41 64 64 17 24 54 60 85 81 30 21 73 63 95 94 77 111
153 138 227 81 21 -16 78 -57 126 -90 100 -69 115 -84 169 -162 59 -86 67 -85
165 13 46 46 84 86 84 89 0 4 -34 21 -75 39 -116 51 -265 163 -280 210 -9 28
8 55 55 88 21 15 72 53 112 84 107 81 153 102 207 95 47 -6 64 -20 230 -187
l56 -55 147 149 c123 125 148 155 148 179 0 19 10 40 29 59 32 31 46 34 85 19
37 -14 134 6 169 36 16 13 41 27 55 30 15 4 39 18 54 31 14 14 37 25 50 24 12
0 57 -2 98 -5 57 -3 89 0 133 15 53 18 63 18 119 5 34 -8 67 -12 74 -9 14 5
65 -19 110 -53 17 -13 50 -31 74 -39 24 -8 58 -26 76 -40 27 -21 42 -24 92
-22 50 2 66 -2 92 -21 21 -16 35 -20 43 -14 7 6 39 10 73 9 53 -1 65 2 94 26
18 16 54 39 80 52 50 25 64 48 76 120 3 22 13 60 21 85 8 25 18 120 24 220 11
210 3 271 -43 310 -17 14 -53 46 -82 71 -28 26 -69 55 -91 64 -44 19 -150 37
-207 35 -53 -1 -86 32 -95 95 -10 77 -24 93 -81 88 -59 -5 -103 20 -130 74
-26 52 -38 232 -21 328 16 94 15 163 -3 181 -31 31 -362 136 -428 136 -22 0
-57 -13 -95 -36 -140 -84 -186 -97 -425 -117 -198 -18 -207 -19 -231 -45 -13
-14 -34 -24 -51 -24 -23 0 -34 -9 -59 -50 -28 -46 -58 -68 -77 -56 -13 8 -47
-32 -77 -94 -15 -30 -36 -67 -46 -82 -11 -14 -41 -91 -69 -169 -39 -113 -47
-146 -38 -162 6 -12 8 -44 4 -81 -19 -176 -49 -240 -140 -301 -31 -20 -70 -50
-87 -66 -40 -38 -81 -38 -115 -2 -13 14 -27 37 -30 50 -7 26 -1 89 11 117 7
17 5 18 -26 14 -34 -6 -68 5 -81 26 -25 38 11 106 57 106 13 0 27 5 30 10 3 6
2 10 -4 10 -6 0 -26 14 -44 30 -28 25 -43 30 -84 30 -27 0 -58 7 -69 14 -18
13 -27 13 -68 1 -26 -8 -59 -23 -73 -35 -14 -11 -35 -20 -47 -20 -11 0 -41 -9
-65 -20 -47 -22 -86 -26 -96 -10 -3 5 -23 9 -43 8 -53 -1 -119 27 -150 65 -15
17 -42 46 -61 62 -18 17 -44 53 -57 82 -18 39 -33 57 -61 72 -21 10 -49 31
-62 45 -16 17 -35 26 -55 26 -17 0 -37 4 -45 9 -10 7 -28 0 -58 -20 -48 -33
-52 -40 -23 -32 35 9 71 -7 121 -54 106 -99 136 -181 86 -235 -27 -29 -126
-70 -175 -72 -27 -1 -41 -11 -73 -51 -45 -57 -112 -188 -129 -254 -23 -87
-109 -132 -155 -81 -10 11 -22 20 -27 20 -5 0 -35 -25 -66 -55 -31 -31 -68
-58 -82 -62 -38 -10 -127 13 -179 46 -25 16 -62 36 -82 44 -20 8 -44 25 -53
38 -21 31 -91 48 -201 49 l-91 0 -12 -33 c-22 -62 -70 -126 -109 -146 -28 -14
-59 -19 -110 -19 -64 0 -76 3 -113 30 -44 33 -60 61 -60 109 0 45 -39 56 -88
25 -20 -13 -48 -35 -61 -50 -14 -14 -30 -26 -38 -26 -7 0 -15 -11 -19 -25 -8
-33 -50 -65 -85 -65 -16 0 -56 14 -89 31 -37 19 -68 28 -80 24 -10 -3 -29 -1
-40 5 -57 30 -155 -54 -221 -190 -34 -69 -42 -98 -46 -160 -7 -101 18 -166
102 -267 35 -41 66 -89 69 -105 3 -17 10 -27 16 -23 7 4 7 11 2 18 -5 7 -13
30 -16 51 -6 31 -21 51 -67 94 -48 45 -62 65 -75 110 -15 51 -15 61 0 131 23
105 90 236 138 272 34 24 48 27 113 27 70 1 76 -1 99 -29 14 -16 27 -38 31
-49 3 -11 12 -20 20 -20 25 0 75 -61 89 -111 9 -28 29 -66 45 -85 17 -18 35
-53 41 -76 8 -28 28 -61 59 -93 27 -27 56 -64 66 -81 10 -18 37 -41 64 -54 66
-32 122 -79 137 -116 12 -27 20 -33 61 -38 26 -4 74 -14 105 -22 49 -12 64
-12 110 0 29 8 68 22 86 31 26 14 47 16 104 10 64 -7 75 -11 114 -47 56 -51
72 -110 49 -183 -8 -27 -12 -64 -9 -81 7 -37 -7 -68 -41 -90 -22 -14 -27 -14
-59 1 -19 9 -52 36 -74 58 -28 31 -46 42 -67 42 -17 0 -43 4 -59 8 l-29 8 6
-53 c4 -29 9 -103 13 -165 6 -103 5 -114 -15 -148 -11 -20 -21 -42 -21 -50 0
-23 -100 -133 -133 -146 -18 -7 -48 -24 -68 -37 -21 -13 -52 -24 -70 -24 -19
0 -41 -4 -49 -9 -27 -13 -217 -18 -242 -5 -13 6 -48 9 -83 6 -58 -5 -59 -6
-66 -38 -4 -18 -14 -41 -23 -51 -9 -10 -16 -25 -16 -35 0 -28 -18 -53 -84
-122 -77 -79 -93 -80 -180 -19 l-63 44 -23 -24 c-20 -22 -32 -25 -88 -25 -58
0 -66 3 -95 31 -30 31 -33 31 -98 25 -59 -5 -68 -4 -85 15 -16 18 -26 20 -69
14 -27 -3 -72 -18 -100 -31 -47 -24 -77 -27 -115 -10 -9 4 -35 -8 -65 -28 -72
-50 -201 -116 -226 -116 -12 0 -40 -15 -63 -33 -41 -33 -127 -87 -201 -126
-22 -12 -51 -30 -65 -41 -21 -17 -42 -21 -125 -23 l-99 -2 -33 43 c-39 51 -44
105 -14 143 10 13 24 48 30 78 20 96 65 148 171 201 57 28 68 31 99 21 29 -8
38 -7 59 9 33 27 58 25 88 -5 14 -14 34 -25 46 -25 11 0 35 -9 53 -20 l32 -20
44 40 c24 22 51 40 60 40 10 0 36 -11 59 -24 46 -26 55 -25 112 12 31 20 46
24 84 19 42 -4 52 -1 104 35 49 33 62 38 79 29 11 -6 25 -20 30 -29 13 -24 75
-42 147 -42 60 0 112 -19 127 -46 13 -23 35 -16 78 27 36 36 40 45 34 72 -19
93 -18 127 9 167 14 21 36 42 48 46 13 4 39 20 58 35 19 16 38 29 43 29 5 0
20 14 34 31 24 28 31 31 69 25 92 -12 141 -64 131 -137 -5 -39 -5 -40 21 -34
15 3 55 7 89 9 33 3 71 10 83 16 12 7 35 9 50 6 18 -3 33 0 40 9 13 16 65 21
74 7 2 -4 26 -7 53 -6 44 2 53 7 105 58 l58 56 -9 89 c-6 53 -20 115 -35 153
-14 36 -26 68 -26 72 0 5 -19 25 -42 46 l-43 38 -28 -24 c-52 -44 -107 -30
-210 53 -16 13 -37 23 -47 23 -11 0 -48 16 -83 35 l-64 35 -24 -38 -24 -37
-110 -8 c-73 -6 -117 -5 -132 2 -33 15 -80 14 -133 -4 -25 -8 -80 -26 -122
-39 -112 -37 -153 -42 -183 -22 -19 13 -25 25 -25 53 0 30 8 43 50 82 37 34
52 58 62 93 10 41 10 49 -5 66 -10 11 -17 35 -17 59 0 27 -6 46 -20 58 -25 23
-46 83 -61 175 -8 55 -19 85 -39 110 -15 19 -44 72 -64 118 -29 67 -36 94 -34
140 1 63 -13 150 -33 198 -11 27 -10 36 4 57 25 39 77 52 124 31 49 -21 120
-18 151 7 14 10 33 19 43 19 10 0 21 5 24 10 4 6 -6 10 -24 10 -36 0 -71 33
-71 67 0 23 43 73 62 73 5 0 13 11 18 25 5 14 23 33 39 43 17 9 32 28 35 43 7
36 40 66 79 73 92 16 108 17 120 8 12 -10 108 -8 162 3 20 4 52 0 88 -13 48
-16 60 -17 75 -6 9 7 29 14 43 14 40 0 155 -38 170 -56 17 -20 83 -64 124 -82
17 -7 59 -16 94 -19 52 -5 70 -12 98 -36 35 -31 73 -94 73 -122 0 -19 7 -19
61 1 25 9 99 20 168 24 l123 8 42 40 c39 38 62 53 134 87 50 24 111 84 158
155 65 100 205 237 299 292 44 26 92 59 105 74 14 14 63 44 110 66 47 22 98
46 113 54 41 20 71 17 104 -9 15 -13 39 -27 53 -30 17 -4 35 -22 50 -49 13
-24 34 -57 46 -73 13 -17 37 -61 54 -97 17 -37 43 -79 58 -93 15 -13 41 -38
59 -55 24 -23 40 -30 71 -30 39 0 126 36 164 68 12 10 29 13 58 8 33 -5 54 -1
101 20 55 25 62 26 105 14 26 -7 58 -23 73 -35 14 -12 42 -26 61 -30 42 -9 96
-47 105 -75 9 -29 18 -25 40 16 11 20 36 50 56 68 36 30 51 62 109 221 12 33
36 87 54 120 18 33 36 72 40 87 3 15 24 48 47 74 22 26 47 63 55 84 12 29 31
46 92 83 92 55 133 71 170 64 15 -3 38 1 52 8 14 7 72 25 130 40 81 20 118 25
162 20 72 -8 144 10 186 47 31 27 40 30 87 32 22 1 23 7 11 48 -5 17 -2 58 8
106 9 43 16 109 16 145 0 55 4 71 21 88 14 14 28 19 42 15 12 -4 41 -9 65 -13
28 -4 52 -15 71 -35 l28 -29 35 23 c35 22 36 24 31 74 -5 48 -3 53 21 69 34
23 73 13 94 -25 16 -27 68 -60 96 -60 8 0 40 10 72 22 l59 23 -45 7 c-49 8
-89 42 -148 123 -20 28 -60 73 -89 100 -41 39 -53 58 -53 80 0 46 33 91 76
105 20 7 52 23 72 36 39 27 89 31 116 11 37 -27 136 31 136 80 0 35 22 63 94
122 l65 52 -25 67 c-13 37 -24 77 -24 90 0 31 46 72 81 72 32 0 69 -31 69 -57
0 -10 4 -24 9 -32 7 -11 15 -7 37 18 22 25 41 34 79 39 47 7 51 10 80 62 17
30 42 60 55 67 31 16 26 16 59 -2z"/>
<path d="M11198 11637 c-57 -53 -78 -80 -78 -97 0 -29 -35 -90 -50 -90 -6 0
-22 -12 -35 -26 l-24 -25 40 -36 39 -36 24 26 c36 38 73 44 118 19 21 -11 38
-16 38 -11 0 5 23 34 51 65 35 39 48 61 44 72 -4 10 -11 30 -15 45 -5 15 -18
42 -29 60 -10 18 -22 49 -26 70 -4 20 -10 37 -14 37 -3 -1 -41 -34 -83 -73z"/>
<path d="M11523 11458 c-10 -17 -63 -129 -63 -134 0 -2 21 -4 48 -4 48 0 132
31 132 49 0 20 -24 61 -35 61 -7 0 -24 9 -38 20 -30 23 -33 24 -44 8z"/>
<path d="M10820 11263 c0 -5 15 -25 33 -45 25 -28 42 -38 77 -43 l45 -7 -29
30 c-16 17 -41 34 -57 37 -15 4 -33 13 -40 21 -12 15 -29 19 -29 7z"/>
<path d="M11155 11100 c-24 -25 -26 -30 -11 -30 10 0 26 10 37 23 38 45 17 51
-26 7z"/>
<path d="M11470 11039 c-40 -50 -38 -59 14 -59 36 0 51 6 86 38 l43 38 -57 10
-57 11 -29 -38z"/>
<path d="M11655 10897 c-25 -21 -26 -25 -14 -52 7 -17 20 -38 28 -48 14 -16
16 -13 37 40 20 53 20 59 6 71 -21 16 -27 16 -57 -11z"/>
<path d="M12495 10885 c-16 -13 -26 -27 -23 -31 4 -3 36 -9 72 -13 70 -7 89
-18 114 -68 l17 -33 26 33 c30 38 43 91 29 118 -9 17 -22 19 -108 19 -88 -1
-100 -3 -127 -25z"/>
<path d="M11926 10854 c-25 -74 -23 -77 32 -69 75 11 80 23 28 74 l-44 43 -16
-48z"/>
<path d="M11066 10848 c-22 -11 -67 -22 -100 -25 -34 -3 -71 -12 -83 -19 -12
-8 -31 -14 -41 -14 -10 0 -33 -7 -50 -16 -27 -13 -36 -13 -59 -2 -16 7 -32 23
-38 36 -7 15 -15 20 -25 15 -8 -3 -31 -7 -52 -8 -41 -2 -73 -26 -156 -119 -53
-60 -69 -103 -34 -92 18 6 187 -25 250 -45 30 -10 36 -8 71 24 36 32 148 76
198 77 10 1 27 15 38 32 23 37 143 122 195 139 l35 12 -35 13 c-49 17 -69 16
-114 -8z"/>
<path d="M11215 10683 c-48 -25 -106 -74 -102 -86 2 -8 88 -40 93 -34 9 14 54
118 54 126 0 15 -9 13 -45 -6z"/>
<path d="M12756 10589 c-20 -34 -34 -64 -31 -67 3 -3 29 2 57 11 29 9 71 19
93 24 48 10 53 32 10 46 -16 5 -42 18 -57 28 -14 11 -28 19 -31 19 -3 0 -21
-28 -41 -61z"/>
<path d="M11451 10609 c-11 -31 -15 -79 -7 -79 2 0 33 13 68 30 34 16 56 30
47 30 -9 0 -33 11 -53 25 -20 14 -38 25 -40 25 -2 0 -9 -14 -15 -31z"/>
<path d="M11016 10390 c6 -6 21 -6 39 -1 30 9 30 9 -9 10 -26 1 -37 -2 -30 -9z"/>
<path d="M11130 10386 c26 -13 44 -11 35 5 -4 5 -18 9 -33 9 l-27 0 25 -14z"/>
<path d="M11477 10278 c-27 -49 -47 -91 -45 -93 5 -5 111 17 155 32 24 8 64
34 90 59 45 42 47 45 29 58 -10 8 -44 18 -75 21 -31 3 -67 7 -81 10 -22 3 -30
-6 -73 -87z"/>
<path d="M7595 9754 c-9 -15 -12 -23 -6 -20 11 7 35 46 28 46 -3 0 -12 -12
-22 -26z"/>
<path d="M7421 9629 c-23 -23 -62 -72 -86 -109 -28 -44 -73 -94 -125 -138 -45
-38 -90 -83 -100 -100 -18 -30 -16 -29 63 22 73 47 136 111 153 156 19 52 63
122 102 163 57 58 52 62 -7 6z"/>
<path d="M8396 5123 c40 -34 109 -62 121 -49 5 4 0 12 -10 18 -10 5 -33 23
-52 39 -24 22 -42 29 -65 27 l-32 -2 38 -33z"/>
<path d="M8734 4950 c9 -13 16 -35 16 -47 0 -13 4 -23 9 -23 5 0 17 -3 26 -7
15 -5 16 -3 7 13 -6 10 -25 35 -42 54 -18 20 -25 24 -16 10z"/>
<path d="M10370 4683 c-26 -10 -50 -36 -50 -55 0 -27 14 -22 49 17 40 46 40
52 1 38z"/>
<path d="M10761 4645 c-29 -25 -92 -72 -139 -105 -111 -75 -154 -118 -213
-208 -48 -72 -48 -73 -31 -102 16 -29 16 -32 -6 -72 -22 -41 -22 -42 -3 -62
32 -36 42 -64 50 -149 5 -45 16 -102 25 -126 10 -26 14 -56 11 -72 -8 -34 -82
-108 -110 -111 -43 -3 -71 4 -92 24 -27 25 -49 19 -93 -27 l-34 -35 31 -6 c41
-8 80 -50 96 -103 11 -38 19 -47 71 -74 56 -29 59 -30 86 -14 42 25 85 22 109
-9 11 -14 21 -29 23 -34 2 -6 47 -2 109 10 118 23 209 64 227 104 15 32 83 67
130 66 20 0 66 4 101 9 78 11 85 9 139 -43 l42 -40 36 19 c55 29 97 83 91 115
-3 14 -2 44 3 65 6 28 5 46 -6 66 -8 16 -14 44 -14 63 0 33 -44 116 -61 116
-35 0 -131 136 -169 240 -7 19 -25 51 -39 70 -15 19 -39 56 -54 83 -15 26 -32
47 -37 47 -5 0 -34 37 -65 83 -31 45 -67 97 -81 116 -13 19 -29 51 -34 71 -5
20 -18 44 -28 53 -17 16 -21 14 -71 -28z"/>
<path d="M10122 3960 c-19 -16 -70 -38 -123 -54 -68 -21 -109 -41 -165 -81
l-75 -53 37 -12 c48 -16 110 -7 139 20 12 11 40 26 61 32 22 5 60 30 86 54 25
24 58 46 72 50 18 4 26 13 26 29 0 40 -22 46 -58 15z"/>
<path d="M9790 3570 c5 -41 8 -45 34 -48 29 -4 111 22 121 38 3 5 0 19 -5 32
-10 21 -17 23 -83 23 l-72 1 5 -46z"/>
<path d="M8700 3559 c0 -9 40 -39 52 -39 5 0 8 8 8 19 0 13 -9 20 -30 23 -16
3 -30 1 -30 -3z"/>
<path d="M3276 3264 c-8 -24 -12 -44 -8 -44 4 0 24 15 45 33 l39 32 -31 11
c-29 12 -30 11 -45 -32z"/>
<path d="M2846 3181 c-15 -34 -26 -69 -24 -79 4 -21 104 -82 135 -82 13 0 29
10 38 23 8 13 25 29 38 34 15 7 28 29 40 68 10 32 16 59 15 61 -2 1 -37 7 -78
13 -41 6 -89 13 -106 17 -29 6 -31 4 -58 -55z"/>
<path d="M6697 2558 c-42 -35 -73 -66 -69 -70 4 -4 27 -8 51 -10 43 -3 45 -1
72 42 31 50 47 100 31 100 -5 0 -44 -28 -85 -62z"/>
</g>
</svg>
